<?xml version="1.0"?>
<svg xmlns="http://www.w3.org/2000/svg" xmlns:xlink="http://www.w3.org/1999/xlink" version="1.1" viewBox="0 0 224 224" width="50px" height="50px"><g transform="translate(5.04,5.04) scale(0.955,0.955)"><g fill="none" fill-rule="nonzero" stroke="none" stroke-width="none" stroke-linecap="butt" stroke-linejoin="none" stroke-miterlimit="10" stroke-dasharray="" stroke-dashoffset="0" font-family="none" font-weight="none" font-size="none" text-anchor="none" style="mix-blend-mode: normal"><g fill="#000000" stroke="#000000" stroke-width="10" stroke-linejoin="round"><path d="M47.9,106.07668c-0.23333,3.21333 -1.42,5.74333 -3.56,7.59c-2.14,1.84667 -4.96,2.77 -8.46,2.77c-3.82667,0 -6.83667,-1.29 -9.03,-3.87c-2.2,-2.57333 -3.3,-6.11 -3.3,-10.61v-1.82c0,-2.87333 0.50667,-5.40333 1.52,-7.59c1.01333,-2.18667 2.46,-3.86667 4.34,-5.04c1.88,-1.16667 4.06333,-1.75 6.55,-1.75c3.44667,0 6.22333,0.92333 8.33,2.77c2.10667,1.84667 3.32333,4.43667 3.65,7.77h-6.15c-0.15333,-1.92667 -0.69,-3.32333 -1.61,-4.19c-0.92667,-0.86667 -2.33333,-1.3 -4.22,-1.3c-2.05333,0 -3.58667,0.73333 -4.6,2.2c-1.02,1.46667 -1.54333,3.74667 -1.57,6.84v2.26c0,3.22667 0.48667,5.58333 1.46,7.07c0.98,1.49333 2.52333,2.24 4.63,2.24c1.9,0 3.31667,-0.43667 4.25,-1.31c0.94,-0.86667 1.47667,-2.21 1.61,-4.03zM50.62,104.72668c0,-2.2 0.42667,-4.16333 1.28,-5.89c0.84667,-1.72 2.06667,-3.05 3.66,-3.99c1.59333,-0.94667 3.44,-1.42 5.54,-1.42c2.99333,0 5.44,0.91667 7.34,2.75c1.89333,1.83333 2.94667,4.32 3.16,7.46l0.04,1.52c0,3.40667 -0.95,6.13667 -2.85,8.19c-1.9,2.06 -4.45,3.09 -7.65,3.09c-3.19333,0 -5.74667,-1.02667 -7.66,-3.08c-1.90667,-2.04667 -2.86,-4.83333 -2.86,-8.36zM56.55,105.15668c0,2.10667 0.39667,3.71667 1.19,4.83c0.79333,1.11333 1.92667,1.67 3.4,1.67c1.44,0 2.56333,-0.55 3.37,-1.65c0.80667,-1.1 1.21,-2.86 1.21,-5.28c0,-2.06667 -0.40333,-3.66667 -1.21,-4.8c-0.80667,-1.13333 -1.94333,-1.7 -3.41,-1.7c-1.44667,0 -2.56667,0.56333 -3.36,1.69c-0.79333,1.12667 -1.19,2.87333 -1.19,5.24zM81.55,84.52668v31.5h-5.95v-31.5zM92.69,84.52668v31.5h-5.95v-31.5zM116.41,116.02668h-5.99c-0.27333,-0.53333 -0.47,-1.19667 -0.59,-1.99c-1.43333,1.6 -3.3,2.4 -5.6,2.4c-2.17333,0 -3.97333,-0.63 -5.4,-1.89c-1.43333,-1.25333 -2.15,-2.83667 -2.15,-4.75c0,-2.35333 0.87333,-4.16 2.62,-5.42c1.74,-1.26 4.26,-1.89667 7.56,-1.91h2.72v-1.27c0,-1.02667 -0.26333,-1.84667 -0.79,-2.46c-0.52667,-0.61333 -1.35667,-0.92 -2.49,-0.92c-0.99333,0 -1.77667,0.24 -2.35,0.72c-0.56667,0.47333 -0.85,1.13 -0.85,1.97h-5.92c0,-1.28667 0.39667,-2.47667 1.19,-3.57c0.79333,-1.09333 1.91333,-1.95333 3.36,-2.58c1.44667,-0.62 3.07333,-0.93 4.88,-0.93c2.73333,0 4.90333,0.68667 6.51,2.06c1.60667,1.37333 2.41,3.30333 2.41,5.79v9.62c0.01333,2.10667 0.30667,3.7 0.88,4.78zM105.52,111.90668c0.88,0 1.68667,-0.19667 2.42,-0.59c0.74,-0.38667 1.28667,-0.91 1.64,-1.57v-3.81h-2.21c-2.96667,0 -4.54667,1.02667 -4.74,3.08l-0.02,0.34c0,0.74 0.26,1.35 0.78,1.83c0.52,0.48 1.23,0.72 2.13,0.72zM121.25,88.38668h5.93v5.45h3.79v4.35h-3.79v11.07c0,0.82 0.15667,1.41 0.47,1.77c0.31333,0.35333 0.91667,0.53 1.81,0.53c0.65333,0 1.23333,-0.04667 1.74,-0.14v4.49c-1.16,0.35333 -2.35667,0.53 -3.59,0.53c-4.15333,0 -6.27333,-2.1 -6.36,-6.3v-11.95h-3.24v-4.35h3.24zM144.49,116.43668c-3.25333,0 -5.90333,-0.99667 -7.95,-2.99c-2.04,-2 -3.06,-4.66 -3.06,-7.98v-0.58c0,-2.22667 0.43,-4.21667 1.29,-5.97c0.86,-1.76 2.08,-3.11333 3.66,-4.06c1.58,-0.95333 3.38,-1.43 5.4,-1.43c3.03333,0 5.42333,0.95667 7.17,2.87c1.74,1.91333 2.61,4.62667 2.61,8.14v2.42h-14.13c0.19333,1.45333 0.77333,2.61667 1.74,3.49c0.96,0.87333 2.18,1.31 3.66,1.31c2.28,0 4.06333,-0.82667 5.35,-2.48l2.91,3.26c-0.88667,1.26 -2.09,2.24 -3.61,2.94c-1.51333,0.70667 -3.19333,1.06 -5.04,1.06zM143.81,98.22668c-1.17333,0 -2.12667,0.39667 -2.86,1.19c-0.73333,0.79333 -1.2,1.92667 -1.4,3.4h8.24v-0.47c-0.02667,-1.31333 -0.38333,-2.32667 -1.07,-3.04c-0.68,-0.72 -1.65,-1.08 -2.91,-1.08zM169.45,99.39668c-0.80667,-0.11333 -1.52,-0.17 -2.14,-0.17c-2.24,0 -3.71,0.76 -4.41,2.28v14.52h-5.92v-22.19h5.6l0.16,2.65c1.18667,-2.04 2.83333,-3.06 4.94,-3.06c0.66,0 1.27667,0.09 1.85,0.27zM190.53,116.02668h-5.99c-0.27333,-0.53333 -0.47,-1.19667 -0.59,-1.99c-1.44,1.6 -3.30667,2.4 -5.6,2.4c-2.17333,0 -3.97667,-0.63 -5.41,-1.89c-1.42667,-1.25333 -2.14,-2.83667 -2.14,-4.75c0,-2.35333 0.87,-4.16 2.61,-5.42c1.74667,-1.26 4.26667,-1.89667 7.56,-1.91h2.73v-1.27c0,-1.02667 -0.26333,-1.84667 -0.79,-2.46c-0.52667,-0.61333 -1.35667,-0.92 -2.49,-0.92c-1,0 -1.78333,0.24 -2.35,0.72c-0.56667,0.47333 -0.85,1.13 -0.85,1.97h-5.93c0,-1.28667 0.39667,-2.47667 1.19,-3.57c0.79333,-1.09333 1.91333,-1.95333 3.36,-2.58c1.45333,-0.62 3.08333,-0.93 4.89,-0.93c2.73333,0 4.90333,0.68667 6.51,2.06c1.60667,1.37333 2.41,3.30333 2.41,5.79v9.62c0.01333,2.10667 0.30667,3.7 0.88,4.78zM179.64,111.90668c0.87333,0 1.68,-0.19667 2.42,-0.59c0.74,-0.38667 1.28667,-0.91 1.64,-1.57v-3.81h-2.22c-2.96667,0 -4.54333,1.02667 -4.73,3.08l-0.02,0.34c0,0.74 0.26,1.35 0.78,1.83c0.52,0.48 1.23,0.72 2.13,0.72zM200.45,84.52668v31.5h-5.94v-31.5z"/></g><g fill="#e74c3c" stroke="#000000" stroke-width="10" stroke-linejoin="round"><path d="M114.77375,5.64375l103.04,80.42125c1.9264,1.5232 2.28445,4.33755 0.76125,6.30875c-0.896,1.12 -2.191,1.70625 -3.535,1.70625c-0.9856,0 -1.92255,-0.3178 -2.77375,-0.945l-6.18625,-4.83v117.775c0,2.464 -2.016,4.48 -4.48,4.48h-62.72v-80.64h-53.76v80.64h-62.72c-2.464,0 -4.48,-2.016 -4.48,-4.48v-117.775l-6.18625,4.83c-1.9712,1.5232 -4.78555,1.16515 -6.30875,-0.76125c-1.5232,-1.9712 -1.16515,-4.78555 0.76125,-6.30875l103.04,-80.42125c0.8288,-0.6272 1.79935,-0.93625 2.77375,-0.93625c0.9744,0 1.94495,0.30905 2.77375,0.93625zM183.68,22.4v25.6725l-26.88,-20.965v-4.7075z"/></g><path d="M0,224v-224h224v224z" fill="none" stroke="none" stroke-width="1" stroke-linejoin="miter"/><g fill="#e74c3c" stroke="none" stroke-width="1" stroke-linejoin="miter"><path d="M112,4.7075c-0.9744,0 -1.94495,0.30905 -2.77375,0.93625l-103.04,80.42125c-1.9264,1.5232 -2.28445,4.33755 -0.76125,6.30875c1.5232,1.9264 4.33755,2.28445 6.30875,0.76125l6.18625,-4.83v117.775c0,2.464 2.016,4.48 4.48,4.48h62.72v-80.64h53.76v80.64h62.72c2.464,0 4.48,-2.016 4.48,-4.48v-117.775l6.18625,4.83c0.8512,0.6272 1.78815,0.945 2.77375,0.945c1.344,0 2.639,-0.58625 3.535,-1.70625c1.5232,-1.9712 1.16515,-4.78555 -0.76125,-6.30875l-103.04,-80.42125c-0.8288,-0.6272 -1.79935,-0.93625 -2.77375,-0.93625zM156.8,22.4v4.7075l26.88,20.965v-25.6725z"/></g><path d="" fill="none" stroke="none" stroke-width="1" stroke-linejoin="miter"/><g fill="#000000" stroke="none" stroke-width="1" stroke-linejoin="miter"><path d="M41.74,106.07668h6.16c-0.23333,3.21333 -1.42,5.74333 -3.56,7.59c-2.14,1.84667 -4.96,2.77 -8.46,2.77v0c-3.82667,0 -6.83667,-1.29 -9.03,-3.87c-2.2,-2.57333 -3.3,-6.11 -3.3,-10.61v0v-1.82c0,-2.87333 0.50667,-5.40333 1.52,-7.59c1.01333,-2.18667 2.46,-3.86667 4.34,-5.04c1.88,-1.16667 4.06333,-1.75 6.55,-1.75v0c3.44667,0 6.22333,0.92333 8.33,2.77c2.10667,1.84667 3.32333,4.43667 3.65,7.77v0h-6.15c-0.15333,-1.92667 -0.69,-3.32333 -1.61,-4.19c-0.92667,-0.86667 -2.33333,-1.3 -4.22,-1.3v0c-2.05333,0 -3.58667,0.73333 -4.6,2.2c-1.02,1.46667 -1.54333,3.74667 -1.57,6.84v0v2.26c0,3.22667 0.48667,5.58333 1.46,7.07c0.98,1.49333 2.52333,2.24 4.63,2.24v0c1.9,0 3.31667,-0.43667 4.25,-1.31c0.94,-0.86667 1.47667,-2.21 1.61,-4.03zM50.62,104.99668v-0.27c0,-2.2 0.42667,-4.16333 1.28,-5.89c0.84667,-1.72 2.06667,-3.05 3.66,-3.99c1.59333,-0.94667 3.44,-1.42 5.54,-1.42v0c2.99333,0 5.44,0.91667 7.34,2.75c1.89333,1.83333 2.94667,4.32 3.16,7.46v0l0.04,1.52c0,3.40667 -0.95,6.13667 -2.85,8.19c-1.9,2.06 -4.45,3.09 -7.65,3.09c-3.19333,0 -5.74667,-1.02667 -7.66,-3.08c-1.90667,-2.04667 -2.86,-4.83333 -2.86,-8.36zM56.55,105.15668v0c0,2.10667 0.39667,3.71667 1.19,4.83c0.79333,1.11333 1.92667,1.67 3.4,1.67v0c1.44,0 2.56333,-0.55 3.37,-1.65c0.80667,-1.1 1.21,-2.86 1.21,-5.28v0c0,-2.06667 -0.40333,-3.66667 -1.21,-4.8c-0.80667,-1.13333 -1.94333,-1.7 -3.41,-1.7v0c-1.44667,0 -2.56667,0.56333 -3.36,1.69c-0.79333,1.12667 -1.19,2.87333 -1.19,5.24zM81.55,84.52668v31.5h-5.95v-31.5zM92.69,84.52668v31.5h-5.95v-31.5zM116.41,116.02668h-5.99c-0.27333,-0.53333 -0.47,-1.19667 -0.59,-1.99v0c-1.43333,1.6 -3.3,2.4 -5.6,2.4v0c-2.17333,0 -3.97333,-0.63 -5.4,-1.89c-1.43333,-1.25333 -2.15,-2.83667 -2.15,-4.75v0c0,-2.35333 0.87333,-4.16 2.62,-5.42c1.74,-1.26 4.26,-1.89667 7.56,-1.91v0h2.72v-1.27c0,-1.02667 -0.26333,-1.84667 -0.79,-2.46c-0.52667,-0.61333 -1.35667,-0.92 -2.49,-0.92v0c-0.99333,0 -1.77667,0.24 -2.35,0.72c-0.56667,0.47333 -0.85,1.13 -0.85,1.97v0h-5.92c0,-1.28667 0.39667,-2.47667 1.19,-3.57c0.79333,-1.09333 1.91333,-1.95333 3.36,-2.58c1.44667,-0.62 3.07333,-0.93 4.88,-0.93v0c2.73333,0 4.90333,0.68667 6.51,2.06c1.60667,1.37333 2.41,3.30333 2.41,5.79v0v9.62c0.01333,2.10667 0.30667,3.7 0.88,4.78v0zM105.52,111.90668v0c0.88,0 1.68667,-0.19667 2.42,-0.59c0.74,-0.38667 1.28667,-0.91 1.64,-1.57v0v-3.81h-2.21c-2.96667,0 -4.54667,1.02667 -4.74,3.08v0l-0.02,0.34c0,0.74 0.26,1.35 0.78,1.83c0.52,0.48 1.23,0.72 2.13,0.72zM121.25,88.38668h5.93v5.45h3.79v4.35h-3.79v11.07c0,0.82 0.15667,1.41 0.47,1.77c0.31333,0.35333 0.91667,0.53 1.81,0.53v0c0.65333,0 1.23333,-0.04667 1.74,-0.14v0v4.49c-1.16,0.35333 -2.35667,0.53 -3.59,0.53v0c-4.15333,0 -6.27333,-2.1 -6.36,-6.3v0v-11.95h-3.24v-4.35h3.24zM144.49,116.43668v0c-3.25333,0 -5.90333,-0.99667 -7.95,-2.99c-2.04,-2 -3.06,-4.66 -3.06,-7.98v0v-0.58c0,-2.22667 0.43,-4.21667 1.29,-5.97c0.86,-1.76 2.08,-3.11333 3.66,-4.06c1.58,-0.95333 3.38,-1.43 5.4,-1.43v0c3.03333,0 5.42333,0.95667 7.17,2.87c1.74,1.91333 2.61,4.62667 2.61,8.14v0v2.42h-14.13c0.19333,1.45333 0.77333,2.61667 1.74,3.49c0.96,0.87333 2.18,1.31 3.66,1.31v0c2.28,0 4.06333,-0.82667 5.35,-2.48v0l2.91,3.26c-0.88667,1.26 -2.09,2.24 -3.61,2.94c-1.51333,0.70667 -3.19333,1.06 -5.04,1.06zM143.81,98.22668v0c-1.17333,0 -2.12667,0.39667 -2.86,1.19c-0.73333,0.79333 -1.2,1.92667 -1.4,3.4v0h8.24v-0.47c-0.02667,-1.31333 -0.38333,-2.32667 -1.07,-3.04c-0.68,-0.72 -1.65,-1.08 -2.91,-1.08zM169.53,93.69668l-0.08,5.7c-0.80667,-0.11333 -1.52,-0.17 -2.14,-0.17v0c-2.24,0 -3.71,0.76 -4.41,2.28v0v14.52h-5.92v-22.19h5.6l0.16,2.65c1.18667,-2.04 2.83333,-3.06 4.94,-3.06v0c0.66,0 1.27667,0.09 1.85,0.27zM190.53,116.02668h-5.99c-0.27333,-0.53333 -0.47,-1.19667 -0.59,-1.99v0c-1.44,1.6 -3.30667,2.4 -5.6,2.4v0c-2.17333,0 -3.97667,-0.63 -5.41,-1.89c-1.42667,-1.25333 -2.14,-2.83667 -2.14,-4.75v0c0,-2.35333 0.87,-4.16 2.61,-5.42c1.74667,-1.26 4.26667,-1.89667 7.56,-1.91v0h2.73v-1.27c0,-1.02667 -0.26333,-1.84667 -0.79,-2.46c-0.52667,-0.61333 -1.35667,-0.92 -2.49,-0.92v0c-1,0 -1.78333,0.24 -2.35,0.72c-0.56667,0.47333 -0.85,1.13 -0.85,1.97v0h-5.93c0,-1.28667 0.39667,-2.47667 1.19,-3.57c0.79333,-1.09333 1.91333,-1.95333 3.36,-2.58c1.45333,-0.62 3.08333,-0.93 4.89,-0.93v0c2.73333,0 4.90333,0.68667 6.51,2.06c1.60667,1.37333 2.41,3.30333 2.41,5.79v0v9.62c0.01333,2.10667 0.30667,3.7 0.88,4.78v0zM179.64,111.90668v0c0.87333,0 1.68,-0.19667 2.42,-0.59c0.74,-0.38667 1.28667,-0.91 1.64,-1.57v0v-3.81h-2.22c-2.96667,0 -4.54333,1.02667 -4.73,3.08v0l-0.02,0.34c0,0.74 0.26,1.35 0.78,1.83c0.52,0.48 1.23,0.72 2.13,0.72zM200.45,84.52668v31.5h-5.94v-31.5z"/></g><path d="" fill="none" stroke="none" stroke-width="1" stroke-linejoin="miter"/><path d="" fill="none" stroke="none" stroke-width="1" stroke-linejoin="miter"/></g></g></svg>
