<?xml version="1.0"?>
<svg xmlns="http://www.w3.org/2000/svg" xmlns:xlink="http://www.w3.org/1999/xlink" version="1.1" viewBox="0 0 224 224" width="50px" height="50px"><g transform="translate(5.04,5.04) scale(0.955,0.955)"><g fill="none" fill-rule="nonzero" stroke="none" stroke-width="none" stroke-linecap="butt" stroke-linejoin="none" stroke-miterlimit="10" stroke-dasharray="" stroke-dashoffset="0" font-family="none" font-weight="none" font-size="none" text-anchor="none" style="mix-blend-mode: normal"><g fill="#000000" stroke="#000000" stroke-width="10" stroke-linejoin="round"><path d="M35.37288,128.36743v-57.59h17.72c5.06,0 9.59,1.14333 13.59,3.43c3.99333,2.28 7.11,5.52 9.35,9.72c2.24,4.20667 3.36,8.98667 3.36,14.34v2.65c0,5.35333 -1.1,10.11333 -3.3,14.28c-2.2,4.16667 -5.30667,7.39667 -9.32,9.69c-4.00667,2.29333 -8.52667,3.45333 -13.56,3.48zM47.24288,80.38743v38.45h5.73c4.64,0 8.18667,-1.51667 10.64,-4.55c2.45333,-3.03333 3.70667,-7.37 3.76,-13.01v-3.05c0,-5.85333 -1.21333,-10.29 -3.64,-13.31c-2.42667,-3.02 -5.97333,-4.53 -10.64,-4.53zM106.96288,129.15743c-6.27333,0 -11.38333,-1.92333 -15.33,-5.77c-3.94,-3.85333 -5.91,-8.98333 -5.91,-15.39v-1.11c0,-4.29333 0.83,-8.13667 2.49,-11.53c1.66,-3.38667 4.01333,-5.99667 7.06,-7.83c3.04667,-1.82667 6.52,-2.74 10.42,-2.74c5.85333,0 10.46333,1.84333 13.83,5.53c3.36,3.69333 5.04,8.92667 5.04,15.7v4.67h-27.25c0.36667,2.79333 1.48,5.03333 3.34,6.72c1.86,1.69333 4.21333,2.54 7.06,2.54c4.4,0 7.84,-1.59667 10.32,-4.79l5.62,6.29c-1.71333,2.42667 -4.03333,4.31667 -6.96,5.67c-2.92667,1.36 -6.17,2.04 -9.73,2.04zM105.65288,94.03743c-2.26667,0 -4.10333,0.76333 -5.51,2.29c-1.41333,1.53333 -2.31667,3.72333 -2.71,6.57h15.9v-0.91c-0.05333,-2.53333 -0.74,-4.49 -2.06,-5.87c-1.32,-1.38667 -3.19333,-2.08 -5.62,-2.08zM167.39288,128.36743h-11.55c-0.52667,-1.02667 -0.90667,-2.30667 -1.14,-3.84c-2.77333,3.08667 -6.37333,4.63 -10.8,4.63c-4.19333,0 -7.66667,-1.21333 -10.42,-3.64c-2.76,-2.42667 -4.14,-5.48333 -4.14,-9.17c0,-4.54 1.68333,-8.02 5.05,-10.44c3.36,-2.42667 8.21667,-3.65333 14.57,-3.68h5.26v-2.46c0,-1.97333 -0.50667,-3.55333 -1.52,-4.74c-1.01333,-1.18667 -2.61667,-1.78 -4.81,-1.78c-1.92,0 -3.42667,0.46 -4.52,1.38c-1.1,0.92667 -1.65,2.19333 -1.65,3.8h-11.43c0,-2.48 0.76667,-4.77333 2.3,-6.88c1.52667,-2.11333 3.68667,-3.77 6.48,-4.97c2.8,-1.19333 5.94,-1.79 9.42,-1.79c5.27333,0 9.45667,1.32333 12.55,3.97c3.1,2.64667 4.65,6.37 4.65,11.17v18.55c0.02667,4.06 0.59333,7.13333 1.7,9.22zM146.39288,120.41743c1.68667,0 3.24333,-0.37667 4.67,-1.13c1.42,-0.74667 2.47333,-1.75333 3.16,-3.02v-7.36h-4.27c-5.72,0 -8.76667,1.97667 -9.14,5.93l-0.04,0.68c0,1.42 0.50333,2.59333 1.51,3.52c1,0.92 2.37,1.38 4.11,1.38zM186.53288,67.61743v60.75h-11.47v-60.75z"/></g><g fill="#2ecc71" stroke="#000000" stroke-width="10" stroke-linejoin="round"><path d="M114.77375,5.64375l103.04,80.42125c1.9264,1.5232 2.28445,4.33755 0.76125,6.30875c-0.896,1.12 -2.191,1.70625 -3.535,1.70625c-0.9856,0 -1.92255,-0.3178 -2.77375,-0.945l-6.18625,-4.83v117.775c0,2.464 -2.016,4.48 -4.48,4.48h-62.72v-80.64h-53.76v80.64h-62.72c-2.464,0 -4.48,-2.016 -4.48,-4.48v-117.775l-6.18625,4.83c-1.9712,1.5232 -4.78555,1.16515 -6.30875,-0.76125c-1.5232,-1.9712 -1.16515,-4.78555 0.76125,-6.30875l103.04,-80.42125c0.8288,-0.6272 1.79935,-0.93625 2.77375,-0.93625c0.9744,0 1.94495,0.30905 2.77375,0.93625zM183.68,22.4v25.6725l-26.88,-20.965v-4.7075z"/></g><path d="M0,224v-224h224v224z" fill="none" stroke="none" stroke-width="1" stroke-linejoin="miter"/><g fill="#2ecc71" stroke="none" stroke-width="1" stroke-linejoin="miter"><path d="M112,4.7075c-0.9744,0 -1.94495,0.30905 -2.77375,0.93625l-103.04,80.42125c-1.9264,1.5232 -2.28445,4.33755 -0.76125,6.30875c1.5232,1.9264 4.33755,2.28445 6.30875,0.76125l6.18625,-4.83v117.775c0,2.464 2.016,4.48 4.48,4.48h62.72v-80.64h53.76v80.64h62.72c2.464,0 4.48,-2.016 4.48,-4.48v-117.775l6.18625,4.83c0.8512,0.6272 1.78815,0.945 2.77375,0.945c1.344,0 2.639,-0.58625 3.535,-1.70625c1.5232,-1.9712 1.16515,-4.78555 -0.76125,-6.30875l-103.04,-80.42125c-0.8288,-0.6272 -1.79935,-0.93625 -2.77375,-0.93625zM156.8,22.4v4.7075l26.88,20.965v-25.6725z"/></g><path d="" fill="none" stroke="none" stroke-width="1" stroke-linejoin="miter"/><path d="" fill="none" stroke="none" stroke-width="1" stroke-linejoin="miter"/><path d="" fill="none" stroke="none" stroke-width="1" stroke-linejoin="miter"/><path d="" fill="none" stroke="none" stroke-width="1" stroke-linejoin="miter"/><path d="" fill="none" stroke="none" stroke-width="1" stroke-linejoin="miter"/><path d="" fill="none" stroke="none" stroke-width="1" stroke-linejoin="miter"/><path d="" fill="none" stroke="none" stroke-width="1" stroke-linejoin="miter"/><path d="" fill="none" stroke="none" stroke-width="1" stroke-linejoin="miter"/><path d="" fill="none" stroke="none" stroke-width="1" stroke-linejoin="miter"/><path d="" fill="none" stroke="none" stroke-width="1" stroke-linejoin="miter"/><path d="" fill="none" stroke="none" stroke-width="1" stroke-linejoin="miter"/><path d="" fill="none" stroke="none" stroke-width="1" stroke-linejoin="miter"/><path d="" fill="none" stroke="none" stroke-width="1" stroke-linejoin="miter"/><path d="" fill="none" stroke="none" stroke-width="1" stroke-linejoin="miter"/><path d="" fill="none" stroke="none" stroke-width="1" stroke-linejoin="miter"/><path d="" fill="none" stroke="none" stroke-width="1" stroke-linejoin="miter"/><path d="" fill="none" stroke="none" stroke-width="1" stroke-linejoin="miter"/><path d="" fill="none" stroke="none" stroke-width="1" stroke-linejoin="miter"/><path d="" fill="none" stroke="none" stroke-width="1" stroke-linejoin="miter"/><path d="" fill="none" stroke="none" stroke-width="1" stroke-linejoin="miter"/><path d="" fill="none" stroke="none" stroke-width="1" stroke-linejoin="miter"/><path d="" fill="none" stroke="none" stroke-width="1" stroke-linejoin="miter"/><path d="" fill="none" stroke="none" stroke-width="1" stroke-linejoin="miter"/><g fill="#000000" stroke="none" stroke-width="1" stroke-linejoin="miter"><path d="M53.21288,128.36743h-17.84v-57.59h17.72c5.06,0 9.59,1.14333 13.59,3.43c3.99333,2.28 7.11,5.52 9.35,9.72c2.24,4.20667 3.36,8.98667 3.36,14.34v0v2.65c0,5.35333 -1.1,10.11333 -3.3,14.28c-2.2,4.16667 -5.30667,7.39667 -9.32,9.69c-4.00667,2.29333 -8.52667,3.45333 -13.56,3.48zM53.09288,80.38743h-5.85v38.45h5.73c4.64,0 8.18667,-1.51667 10.64,-4.55c2.45333,-3.03333 3.70667,-7.37 3.76,-13.01v0v-3.05c0,-5.85333 -1.21333,-10.29 -3.64,-13.31c-2.42667,-3.02 -5.97333,-4.53 -10.64,-4.53zM106.96288,129.15743v0c-6.27333,0 -11.38333,-1.92333 -15.33,-5.77c-3.94,-3.85333 -5.91,-8.98333 -5.91,-15.39v0v-1.11c0,-4.29333 0.83,-8.13667 2.49,-11.53c1.66,-3.38667 4.01333,-5.99667 7.06,-7.83c3.04667,-1.82667 6.52,-2.74 10.42,-2.74v0c5.85333,0 10.46333,1.84333 13.83,5.53c3.36,3.69333 5.04,8.92667 5.04,15.7v0v4.67h-27.25c0.36667,2.79333 1.48,5.03333 3.34,6.72c1.86,1.69333 4.21333,2.54 7.06,2.54v0c4.4,0 7.84,-1.59667 10.32,-4.79v0l5.62,6.29c-1.71333,2.42667 -4.03333,4.31667 -6.96,5.67c-2.92667,1.36 -6.17,2.04 -9.73,2.04zM105.65288,94.03743v0c-2.26667,0 -4.10333,0.76333 -5.51,2.29c-1.41333,1.53333 -2.31667,3.72333 -2.71,6.57v0h15.9v-0.91c-0.05333,-2.53333 -0.74,-4.49 -2.06,-5.87c-1.32,-1.38667 -3.19333,-2.08 -5.62,-2.08zM167.39288,128.36743h-11.55c-0.52667,-1.02667 -0.90667,-2.30667 -1.14,-3.84v0c-2.77333,3.08667 -6.37333,4.63 -10.8,4.63v0c-4.19333,0 -7.66667,-1.21333 -10.42,-3.64c-2.76,-2.42667 -4.14,-5.48333 -4.14,-9.17v0c0,-4.54 1.68333,-8.02 5.05,-10.44c3.36,-2.42667 8.21667,-3.65333 14.57,-3.68v0h5.26v-2.46c0,-1.97333 -0.50667,-3.55333 -1.52,-4.74c-1.01333,-1.18667 -2.61667,-1.78 -4.81,-1.78v0c-1.92,0 -3.42667,0.46 -4.52,1.38c-1.1,0.92667 -1.65,2.19333 -1.65,3.8v0h-11.43c0,-2.48 0.76667,-4.77333 2.3,-6.88c1.52667,-2.11333 3.68667,-3.77 6.48,-4.97c2.8,-1.19333 5.94,-1.79 9.42,-1.79v0c5.27333,0 9.45667,1.32333 12.55,3.97c3.1,2.64667 4.65,6.37 4.65,11.17v0v18.55c0.02667,4.06 0.59333,7.13333 1.7,9.22v0zM146.39288,120.41743v0c1.68667,0 3.24333,-0.37667 4.67,-1.13c1.42,-0.74667 2.47333,-1.75333 3.16,-3.02v0v-7.36h-4.27c-5.72,0 -8.76667,1.97667 -9.14,5.93v0l-0.04,0.68c0,1.42 0.50333,2.59333 1.51,3.52c1,0.92 2.37,1.38 4.11,1.38zM186.53288,67.61743v60.75h-11.47v-60.75z"/></g><path d="" fill="none" stroke="none" stroke-width="1" stroke-linejoin="miter"/></g></g></svg>
