<?xml version="1.0"?>
<svg xmlns="http://www.w3.org/2000/svg" xmlns:xlink="http://www.w3.org/1999/xlink" version="1.1" viewBox="0 0 224 224" width="50px" height="50px"><g transform="translate(5.04,5.04) scale(0.955,0.955)"><g fill="none" fill-rule="nonzero" stroke="none" stroke-width="none" stroke-linecap="butt" stroke-linejoin="none" stroke-miterlimit="10" stroke-dasharray="" stroke-dashoffset="0" font-family="none" font-weight="none" font-size="none" text-anchor="none" style="mix-blend-mode: normal"><g fill="#000000" stroke="#000000" stroke-width="10" stroke-linejoin="round"><path d="M45.625,73.81668v43.9h23.01v8.71h-33.85v-52.61zM72.545,106.51668c0,-3.88 0.74667,-7.33667 2.24,-10.37c1.49333,-3.03333 3.64333,-5.38333 6.45,-7.05c2.80667,-1.66 6.06333,-2.49 9.77,-2.49c5.27333,0 9.58,1.61333 12.92,4.84c3.33333,3.23333 5.19333,7.62 5.58,13.16l0.07,2.67c0,6 -1.67333,10.81 -5.02,14.43c-3.34667,3.62667 -7.84,5.44 -13.48,5.44c-5.63333,0 -10.13,-1.80667 -13.49,-5.42c-3.36,-3.61333 -5.04,-8.52667 -5.04,-14.74zM82.985,107.27668c0,3.70667 0.69667,6.54333 2.09,8.51c1.4,1.96 3.4,2.94 6,2.94c2.53333,0 4.51,-0.96667 5.93,-2.9c1.42,-1.94 2.13,-5.04333 2.13,-9.31c0,-3.64 -0.71,-6.45667 -2.13,-8.45c-1.42,-2 -3.42,-3 -6,-3c-2.55333,0 -4.53,0.99333 -5.93,2.98c-1.39333,1.98667 -2.09,5.06333 -2.09,9.23zM149.215,126.42668h-10.55c-0.48,-0.94 -0.83,-2.10667 -1.05,-3.5c-2.52667,2.81333 -5.81333,4.22 -9.86,4.22c-3.83333,0 -7.00667,-1.10667 -9.52,-3.32c-2.52,-2.22 -3.78,-5.01333 -3.78,-8.38c0,-4.14667 1.53667,-7.32667 4.61,-9.54c3.06667,-2.22 7.50333,-3.34 13.31,-3.36h4.81v-2.24c0,-1.80667 -0.46333,-3.25333 -1.39,-4.34c-0.92667,-1.08667 -2.39,-1.63 -4.39,-1.63c-1.76,0 -3.14,0.42333 -4.14,1.27c-1,0.84 -1.5,1.99667 -1.5,3.47h-10.44c0,-2.26667 0.69667,-4.36333 2.09,-6.29c1.4,-1.92667 3.37667,-3.43667 5.93,-4.53c2.55333,-1.1 5.42,-1.65 8.6,-1.65c4.81333,0 8.63667,1.21 11.47,3.63c2.83333,2.42 4.25,5.82333 4.25,10.21v16.95c0.02,3.70667 0.53667,6.51333 1.55,8.42zM130.025,119.16668c1.54667,0 2.97,-0.34333 4.27,-1.03c1.3,-0.68667 2.26333,-1.61 2.89,-2.77v-6.72h-3.9c-5.23333,0 -8.01667,1.80667 -8.35,5.42l-0.04,0.62c0,1.3 0.46,2.37 1.38,3.21c0.91333,0.84667 2.16333,1.27 3.75,1.27zM155.465,87.32668h9.83l0.32,4.52c2.8,-3.49333 6.54667,-5.24 11.24,-5.24c4.14667,0 7.23,1.21667 9.25,3.65c2.02667,2.43333 3.06333,6.07 3.11,10.91v25.26h-10.44v-25c0,-2.22 -0.48333,-3.83 -1.45,-4.83c-0.96,-1 -2.56,-1.5 -4.8,-1.5c-2.94,0 -5.14667,1.25333 -6.62,3.76v27.57h-10.44z"/></g><g fill="#f1c40f" stroke="#000000" stroke-width="10" stroke-linejoin="round"><path d="M114.77375,5.64375l103.04,80.42125c1.9264,1.5232 2.28445,4.33755 0.76125,6.30875c-0.896,1.12 -2.191,1.70625 -3.535,1.70625c-0.9856,0 -1.92255,-0.3178 -2.77375,-0.945l-6.18625,-4.83v117.775c0,2.464 -2.016,4.48 -4.48,4.48h-62.72v-80.64h-53.76v80.64h-62.72c-2.464,0 -4.48,-2.016 -4.48,-4.48v-117.775l-6.18625,4.83c-1.9712,1.5232 -4.78555,1.16515 -6.30875,-0.76125c-1.5232,-1.9712 -1.16515,-4.78555 0.76125,-6.30875l103.04,-80.42125c0.8288,-0.6272 1.79935,-0.93625 2.77375,-0.93625c0.9744,0 1.94495,0.30905 2.77375,0.93625zM183.68,22.4v25.6725l-26.88,-20.965v-4.7075z"/></g><path d="M0,224v-224h224v224z" fill="none" stroke="none" stroke-width="1" stroke-linejoin="miter"/><g fill="#f1c40f" stroke="none" stroke-width="1" stroke-linejoin="miter"><path d="M112,4.7075c-0.9744,0 -1.94495,0.30905 -2.77375,0.93625l-103.04,80.42125c-1.9264,1.5232 -2.28445,4.33755 -0.76125,6.30875c1.5232,1.9264 4.33755,2.28445 6.30875,0.76125l6.18625,-4.83v117.775c0,2.464 2.016,4.48 4.48,4.48h62.72v-80.64h53.76v80.64h62.72c2.464,0 4.48,-2.016 4.48,-4.48v-117.775l6.18625,4.83c0.8512,0.6272 1.78815,0.945 2.77375,0.945c1.344,0 2.639,-0.58625 3.535,-1.70625c1.5232,-1.9712 1.16515,-4.78555 -0.76125,-6.30875l-103.04,-80.42125c-0.8288,-0.6272 -1.79935,-0.93625 -2.77375,-0.93625zM156.8,22.4v4.7075l26.88,20.965v-25.6725z"/></g><path d="" fill="none" stroke="none" stroke-width="1" stroke-linejoin="miter"/><path d="" fill="none" stroke="none" stroke-width="1" stroke-linejoin="miter"/><path d="" fill="none" stroke="none" stroke-width="1" stroke-linejoin="miter"/><path d="" fill="none" stroke="none" stroke-width="1" stroke-linejoin="miter"/><path d="" fill="none" stroke="none" stroke-width="1" stroke-linejoin="miter"/><path d="" fill="none" stroke="none" stroke-width="1" stroke-linejoin="miter"/><path d="" fill="none" stroke="none" stroke-width="1" stroke-linejoin="miter"/><g fill="#000000" stroke="none" stroke-width="1" stroke-linejoin="miter"><path d="M45.625,73.81668v43.9h23.01v8.71h-33.85v-52.61zM72.545,106.98668v-0.47c0,-3.88 0.74667,-7.33667 2.24,-10.37c1.49333,-3.03333 3.64333,-5.38333 6.45,-7.05c2.80667,-1.66 6.06333,-2.49 9.77,-2.49v0c5.27333,0 9.58,1.61333 12.92,4.84c3.33333,3.23333 5.19333,7.62 5.58,13.16v0l0.07,2.67c0,6 -1.67333,10.81 -5.02,14.43c-3.34667,3.62667 -7.84,5.44 -13.48,5.44c-5.63333,0 -10.13,-1.80667 -13.49,-5.42c-3.36,-3.61333 -5.04,-8.52667 -5.04,-14.74zM82.985,107.27668v0c0,3.70667 0.69667,6.54333 2.09,8.51c1.4,1.96 3.4,2.94 6,2.94v0c2.53333,0 4.51,-0.96667 5.93,-2.9c1.42,-1.94 2.13,-5.04333 2.13,-9.31v0c0,-3.64 -0.71,-6.45667 -2.13,-8.45c-1.42,-2 -3.42,-3 -6,-3v0c-2.55333,0 -4.53,0.99333 -5.93,2.98c-1.39333,1.98667 -2.09,5.06333 -2.09,9.23zM149.215,126.42668h-10.55c-0.48,-0.94 -0.83,-2.10667 -1.05,-3.5v0c-2.52667,2.81333 -5.81333,4.22 -9.86,4.22v0c-3.83333,0 -7.00667,-1.10667 -9.52,-3.32c-2.52,-2.22 -3.78,-5.01333 -3.78,-8.38v0c0,-4.14667 1.53667,-7.32667 4.61,-9.54c3.06667,-2.22 7.50333,-3.34 13.31,-3.36v0h4.81v-2.24c0,-1.80667 -0.46333,-3.25333 -1.39,-4.34c-0.92667,-1.08667 -2.39,-1.63 -4.39,-1.63v0c-1.76,0 -3.14,0.42333 -4.14,1.27c-1,0.84 -1.5,1.99667 -1.5,3.47v0h-10.44c0,-2.26667 0.69667,-4.36333 2.09,-6.29c1.4,-1.92667 3.37667,-3.43667 5.93,-4.53c2.55333,-1.1 5.42,-1.65 8.6,-1.65v0c4.81333,0 8.63667,1.21 11.47,3.63c2.83333,2.42 4.25,5.82333 4.25,10.21v0v16.95c0.02,3.70667 0.53667,6.51333 1.55,8.42v0zM130.025,119.16668v0c1.54667,0 2.97,-0.34333 4.27,-1.03c1.3,-0.68667 2.26333,-1.61 2.89,-2.77v0v-6.72h-3.9c-5.23333,0 -8.01667,1.80667 -8.35,5.42v0l-0.04,0.62c0,1.3 0.46,2.37 1.38,3.21c0.91333,0.84667 2.16333,1.27 3.75,1.27zM155.465,87.32668h9.83l0.32,4.52c2.8,-3.49333 6.54667,-5.24 11.24,-5.24v0c4.14667,0 7.23,1.21667 9.25,3.65c2.02667,2.43333 3.06333,6.07 3.11,10.91v0v25.26h-10.44v-25c0,-2.22 -0.48333,-3.83 -1.45,-4.83c-0.96,-1 -2.56,-1.5 -4.8,-1.5v0c-2.94,0 -5.14667,1.25333 -6.62,3.76v0v27.57h-10.44z"/></g><path d="" fill="none" stroke="none" stroke-width="1" stroke-linejoin="miter"/></g></g></svg>
